<svg width="12" height="16" viewBox="0 0 12 16" fill="none" xmlns="http://www.w3.org/2000/svg">
<path fill-rule="evenodd" clip-rule="evenodd" d="M1.70711 0.292893C1.31658 -0.0976312 0.683417 -0.0976312 0.292893 0.292893C-0.0976312 0.683417 -0.0976312 1.31658 0.292893 1.70711L5.29289 6.70711C5.68342 7.09763 6.31658 7.09763 6.70711 6.70711L11.7071 1.70711C12.0976 1.31658 12.0976 0.683417 11.7071 0.292893C11.3166 -0.0976312 10.6834 -0.0976312 10.2929 0.292893L6 4.58579L1.70711 0.292893ZM1.70711 9.29289C1.31658 8.90237 0.683417 8.90237 0.292893 9.29289C-0.0976312 9.68342 -0.0976312 10.3166 0.292893 10.7071L5.29289 15.7071C5.68342 16.0976 6.31658 16.0976 6.70711 15.7071L11.7071 10.7071C12.0976 10.3166 12.0976 9.68342 11.7071 9.29289C11.3166 8.90237 10.6834 8.90237 10.2929 9.29289L6 13.5858L1.70711 9.29289Z" fill="white"/>
</svg>
